<svg xmlns="http://www.w3.org/2000/svg" viewBox="-184 -133 1298 1298">
  <path d="M 665,74 L 616,60 L 587,55 L 547,51 L 485,51 L 439,56 L 398,64 L 355,77 L 320,91 L 284,109 L 243,134 L 206,162 L 179,186 L 141,227 L 120,254 L 95,291 L 75,327 L 55,371 L 42,407 L 29,455 L 20,510 L 17,555 L 18,610 L 24,661 L 32,698 L 46,743 L 55,765 L 82,816 L 111,857 L 123,871 L 168,914 L 203,939 L 240,960 L 278,976 L 314,987 L 367,997 L 403,1000 L 453,1000 L 516,993 L 548,986 L 601,969 L 622,960 L 677,931 L 723,899 L 758,869 L 797,828 L 823,795 L 850,754 L 878,700 L 896,655 L 912,599 L 919,563 L 925,507 L 925,453 L 919,392 L 913,361 L 897,308 L 882,272 L 865,240 L 847,212 L 820,178 L 788,146 L 759,123 L 715,96 L 688,83 Z M 604,231 L 621,239 L 647,256 L 666,272 L 684,291 L 701,314 L 715,339 L 733,386 L 738,408 L 744,452 L 744,506 L 737,559 L 730,588 L 709,645 L 702,660 L 684,691 L 660,725 L 646,741 L 615,771 L 580,796 L 542,816 L 498,830 L 469,835 L 438,837 L 411,836 L 387,833 L 365,828 L 341,820 L 324,812 L 292,791 L 278,779 L 259,759 L 248,745 L 233,721 L 221,696 L 209,662 L 202,629 L 198,594 L 199,537 L 203,505 L 210,472 L 229,416 L 243,387 L 260,358 L 284,325 L 314,293 L 348,265 L 365,254 L 395,238 L 417,229 L 444,221 L 465,217 L 496,214 L 526,214 L 547,216 L 577,222 Z" fill="#1138ad" fill-rule="evenodd"/>
</svg>
